<mxfile host="app.diagrams.net" modified="2022-04-06T06:21:44.265Z" agent="5.0 (Macintosh; Intel Mac OS X 10_15_7) AppleWebKit/537.36 (KHTML, like Gecko) Chrome/100.0.4896.60 Safari/537.36" etag="q6mnvHpp2YgZCtVAtIs_" version="17.4.0" type="github">
  <diagram name="Page-1" id="edf60f1a-56cd-e834-aa8a-f176f3a09ee4">
    <mxGraphModel dx="1186" dy="764" grid="1" gridSize="13" guides="1" tooltips="1" connect="1" arrows="1" fold="1" page="1" pageScale="1" pageWidth="1200" pageHeight="1920" background="none" math="0" shadow="0">
      <root>
        <mxCell id="0" />
        <mxCell id="1" parent="0" />
        <mxCell id="inHCAh-rtTuk2Lil4JLo-1" value="开始遍历所有app的所有分片" style="rounded=0;whiteSpace=wrap;html=1;" parent="1" vertex="1">
          <mxGeometry x="489.69000000000005" y="221" width="170" height="40" as="geometry" />
        </mxCell>
        <mxCell id="inHCAh-rtTuk2Lil4JLo-2" value="开始处理某一个分片 : gpid" style="rounded=0;whiteSpace=wrap;html=1;" parent="1" vertex="1">
          <mxGeometry x="489.69000000000005" y="331" width="170" height="40" as="geometry" />
        </mxCell>
        <mxCell id="inHCAh-rtTuk2Lil4JLo-3" value="获得这个分片的config_context" style="rounded=0;whiteSpace=wrap;html=1;align=center;" parent="1" vertex="1">
          <mxGeometry x="469.69000000000005" y="441" width="210" height="30" as="geometry" />
        </mxCell>
        <mxCell id="inHCAh-rtTuk2Lil4JLo-4" value="config_context.lb_action.front()是否valid" style="rhombus;whiteSpace=wrap;html=1;" parent="1" vertex="1">
          <mxGeometry x="435" y="533" width="279.38" height="80" as="geometry" />
        </mxCell>
        <mxCell id="inHCAh-rtTuk2Lil4JLo-5" value="action &amp;lt;- config_context.lb_action.front()" style="rounded=0;whiteSpace=wrap;html=1;" parent="1" vertex="1">
          <mxGeometry x="142.38" y="1040" width="310" height="30" as="geometry" />
        </mxCell>
        <mxCell id="inHCAh-rtTuk2Lil4JLo-13" value="action与secondary相关" style="rhombus;whiteSpace=wrap;html=1;" parent="1" vertex="1">
          <mxGeometry x="217.38000000000005" y="1183" width="160" height="50" as="geometry" />
        </mxCell>
        <mxCell id="inHCAh-rtTuk2Lil4JLo-14" value="send_proposal(action)" style="rounded=0;whiteSpace=wrap;html=1;" parent="1" vertex="1">
          <mxGeometry x="116.38" y="1300" width="158" height="39" as="geometry" />
        </mxCell>
        <mxCell id="inHCAh-rtTuk2Lil4JLo-15" value="action -&amp;gt; add_secondary_actions" style="rounded=0;whiteSpace=wrap;html=1;" parent="1" vertex="1">
          <mxGeometry x="317.88" y="1300" width="201.5" height="39" as="geometry" />
        </mxCell>
        <mxCell id="inHCAh-rtTuk2Lil4JLo-18" value="meta_function_level &amp;lt; steady&lt;br&gt;|| healthy_count &amp;lt; total_partition_count&lt;br&gt;|| 有处于staging状态的app" style="rhombus;whiteSpace=wrap;html=1;align=center;" parent="1" vertex="1">
          <mxGeometry x="156.38" y="1662" width="302" height="93" as="geometry" />
        </mxCell>
        <mxCell id="inHCAh-rtTuk2Lil4JLo-19" value="结束" style="rounded=0;whiteSpace=wrap;html=1;" parent="1" vertex="1">
          <mxGeometry x="245.88" y="1989" width="123" height="39" as="geometry" />
        </mxCell>
        <mxCell id="inHCAh-rtTuk2Lil4JLo-20" value="meta_function_level == steady" style="rhombus;whiteSpace=wrap;html=1;" parent="1" vertex="1">
          <mxGeometry x="519.38" y="1670" width="195" height="77" as="geometry" />
        </mxCell>
        <mxCell id="inHCAh-rtTuk2Lil4JLo-22" value="&lt;span&gt;计算(分析)balance实际需要执行的操作&lt;/span&gt;&lt;br&gt;&lt;span&gt;输出: migration_map :&amp;nbsp;&amp;nbsp;&lt;/span&gt;&lt;span&gt;map(gpid, configuration_balancer_request)&lt;/span&gt;" style="rounded=1;whiteSpace=wrap;html=1;align=left;" parent="1" vertex="1">
          <mxGeometry x="500.88" y="1794" width="232" height="52" as="geometry" />
        </mxCell>
        <mxCell id="inHCAh-rtTuk2Lil4JLo-24" value="!migration_map.empty()" style="rhombus;whiteSpace=wrap;html=1;" parent="1" vertex="1">
          <mxGeometry x="949" y="1781" width="182" height="65" as="geometry" />
        </mxCell>
        <mxCell id="inHCAh-rtTuk2Lil4JLo-26" value="&lt;span style=&quot;text-align: left&quot;&gt;打印 migration_map :&amp;nbsp;&amp;nbsp;&lt;/span&gt;&lt;span style=&quot;text-align: left&quot;&gt;map(gpid, configuration_balancer_request)&lt;/span&gt;" style="rounded=0;whiteSpace=wrap;html=1;" parent="1" vertex="1">
          <mxGeometry x="408.88" y="1898" width="416" height="39" as="geometry" />
        </mxCell>
        <mxCell id="inHCAh-rtTuk2Lil4JLo-27" value="塞入任务(LPC_META_STATE_NORMAL,&amp;nbsp; meta_service::balancer_run)" style="rounded=0;whiteSpace=wrap;html=1;" parent="1" vertex="1">
          <mxGeometry x="858" y="1989" width="364" height="39" as="geometry" />
        </mxCell>
        <mxCell id="inHCAh-rtTuk2Lil4JLo-28" value="" style="endArrow=classic;html=1;rounded=0;exitX=0.5;exitY=1;exitDx=0;exitDy=0;entryX=0.5;entryY=0;entryDx=0;entryDy=0;" parent="1" source="inHCAh-rtTuk2Lil4JLo-1" target="inHCAh-rtTuk2Lil4JLo-2" edge="1">
          <mxGeometry width="50" height="50" relative="1" as="geometry">
            <mxPoint x="698" y="466" as="sourcePoint" />
            <mxPoint x="748" y="416" as="targetPoint" />
          </mxGeometry>
        </mxCell>
        <mxCell id="inHCAh-rtTuk2Lil4JLo-29" value="" style="endArrow=classic;html=1;rounded=0;exitX=0.5;exitY=1;exitDx=0;exitDy=0;entryX=0.5;entryY=0;entryDx=0;entryDy=0;" parent="1" source="inHCAh-rtTuk2Lil4JLo-2" target="inHCAh-rtTuk2Lil4JLo-3" edge="1">
          <mxGeometry width="50" height="50" relative="1" as="geometry">
            <mxPoint x="698" y="596" as="sourcePoint" />
            <mxPoint x="748" y="546" as="targetPoint" />
          </mxGeometry>
        </mxCell>
        <mxCell id="inHCAh-rtTuk2Lil4JLo-30" value="" style="endArrow=classic;html=1;rounded=0;exitX=0.5;exitY=1;exitDx=0;exitDy=0;entryX=0.5;entryY=0;entryDx=0;entryDy=0;" parent="1" source="inHCAh-rtTuk2Lil4JLo-3" target="inHCAh-rtTuk2Lil4JLo-4" edge="1">
          <mxGeometry width="50" height="50" relative="1" as="geometry">
            <mxPoint x="698" y="700" as="sourcePoint" />
            <mxPoint x="748" y="650" as="targetPoint" />
          </mxGeometry>
        </mxCell>
        <mxCell id="inHCAh-rtTuk2Lil4JLo-33" value="分片不healthy" style="ellipse;whiteSpace=wrap;html=1;" parent="1" vertex="1">
          <mxGeometry x="222.38" y="1105" width="150" height="52" as="geometry" />
        </mxCell>
        <mxCell id="inHCAh-rtTuk2Lil4JLo-34" value="分片的状态" style="shape=parallelogram;perimeter=parallelogramPerimeter;whiteSpace=wrap;html=1;fixedSize=1;" parent="1" vertex="1">
          <mxGeometry x="768" y="681" width="116" height="39" as="geometry" />
        </mxCell>
        <mxCell id="inHCAh-rtTuk2Lil4JLo-35" value="主分片缺失" style="rhombus;whiteSpace=wrap;html=1;" parent="1" vertex="1">
          <mxGeometry x="777" y="754" width="98" height="65" as="geometry" />
        </mxCell>
        <mxCell id="inHCAh-rtTuk2Lil4JLo-113" value="" style="edgeStyle=orthogonalEdgeStyle;rounded=0;orthogonalLoop=1;jettySize=auto;html=1;" parent="1" source="inHCAh-rtTuk2Lil4JLo-36" target="inHCAh-rtTuk2Lil4JLo-84" edge="1">
          <mxGeometry relative="1" as="geometry" />
        </mxCell>
        <mxCell id="inHCAh-rtTuk2Lil4JLo-36" value="从分片缺失" style="rhombus;whiteSpace=wrap;html=1;" parent="1" vertex="1">
          <mxGeometry x="777" y="871" width="98" height="65" as="geometry" />
        </mxCell>
        <mxCell id="inHCAh-rtTuk2Lil4JLo-37" value="从分片冗余" style="rhombus;whiteSpace=wrap;html=1;" parent="1" vertex="1">
          <mxGeometry x="777" y="994.5" width="98" height="65" as="geometry" />
        </mxCell>
        <mxCell id="inHCAh-rtTuk2Lil4JLo-38" value="" style="endArrow=classic;html=1;rounded=0;exitX=0.5;exitY=1;exitDx=0;exitDy=0;entryX=0.5;entryY=0;entryDx=0;entryDy=0;" parent="1" source="inHCAh-rtTuk2Lil4JLo-34" target="inHCAh-rtTuk2Lil4JLo-35" edge="1">
          <mxGeometry width="50" height="50" relative="1" as="geometry">
            <mxPoint x="663" y="895" as="sourcePoint" />
            <mxPoint x="713" y="845" as="targetPoint" />
          </mxGeometry>
        </mxCell>
        <mxCell id="inHCAh-rtTuk2Lil4JLo-44" value="" style="endArrow=classic;html=1;rounded=0;exitX=0.5;exitY=1;exitDx=0;exitDy=0;entryX=0.5;entryY=0;entryDx=0;entryDy=0;" parent="1" source="inHCAh-rtTuk2Lil4JLo-35" target="inHCAh-rtTuk2Lil4JLo-36" edge="1">
          <mxGeometry relative="1" as="geometry">
            <mxPoint x="572" y="897" as="sourcePoint" />
            <mxPoint x="732" y="897" as="targetPoint" />
          </mxGeometry>
        </mxCell>
        <mxCell id="inHCAh-rtTuk2Lil4JLo-45" value="No" style="edgeLabel;resizable=0;html=1;align=center;verticalAlign=middle;" parent="inHCAh-rtTuk2Lil4JLo-44" connectable="0" vertex="1">
          <mxGeometry relative="1" as="geometry" />
        </mxCell>
        <mxCell id="inHCAh-rtTuk2Lil4JLo-47" value="" style="endArrow=classic;html=1;rounded=0;entryX=0.5;entryY=0;entryDx=0;entryDy=0;exitX=0.5;exitY=1;exitDx=0;exitDy=0;" parent="1" source="inHCAh-rtTuk2Lil4JLo-36" target="inHCAh-rtTuk2Lil4JLo-37" edge="1">
          <mxGeometry relative="1" as="geometry">
            <mxPoint x="910" y="936" as="sourcePoint" />
            <mxPoint x="839" y="884" as="targetPoint" />
          </mxGeometry>
        </mxCell>
        <mxCell id="inHCAh-rtTuk2Lil4JLo-48" value="No" style="edgeLabel;resizable=0;html=1;align=center;verticalAlign=middle;" parent="inHCAh-rtTuk2Lil4JLo-47" connectable="0" vertex="1">
          <mxGeometry relative="1" as="geometry" />
        </mxCell>
        <mxCell id="inHCAh-rtTuk2Lil4JLo-49" value="" style="endArrow=classic;html=1;rounded=0;entryX=0.5;entryY=0;entryDx=0;entryDy=0;exitX=0.5;exitY=1;exitDx=0;exitDy=0;" parent="1" source="inHCAh-rtTuk2Lil4JLo-37" target="inHCAh-rtTuk2Lil4JLo-63" edge="1">
          <mxGeometry relative="1" as="geometry">
            <mxPoint x="1001" y="988" as="sourcePoint" />
            <mxPoint x="826" y="1079" as="targetPoint" />
          </mxGeometry>
        </mxCell>
        <mxCell id="inHCAh-rtTuk2Lil4JLo-50" value="No" style="edgeLabel;resizable=0;html=1;align=center;verticalAlign=middle;" parent="inHCAh-rtTuk2Lil4JLo-49" connectable="0" vertex="1">
          <mxGeometry relative="1" as="geometry" />
        </mxCell>
        <mxCell id="inHCAh-rtTuk2Lil4JLo-51" value="" style="endArrow=classic;html=1;rounded=0;exitX=0.5;exitY=1;exitDx=0;exitDy=0;entryX=0.5;entryY=0;entryDx=0;entryDy=0;" parent="1" source="inHCAh-rtTuk2Lil4JLo-5" target="inHCAh-rtTuk2Lil4JLo-33" edge="1">
          <mxGeometry width="50" height="50" relative="1" as="geometry">
            <mxPoint x="571.38" y="1194" as="sourcePoint" />
            <mxPoint x="621.38" y="1144" as="targetPoint" />
          </mxGeometry>
        </mxCell>
        <mxCell id="inHCAh-rtTuk2Lil4JLo-52" value="" style="endArrow=classic;html=1;rounded=0;exitX=0;exitY=0.5;exitDx=0;exitDy=0;entryX=0.5;entryY=0;entryDx=0;entryDy=0;edgeStyle=orthogonalEdgeStyle;" parent="1" source="inHCAh-rtTuk2Lil4JLo-4" target="inHCAh-rtTuk2Lil4JLo-5" edge="1">
          <mxGeometry relative="1" as="geometry">
            <mxPoint x="494" y="637" as="sourcePoint" />
            <mxPoint x="698" y="663" as="targetPoint" />
          </mxGeometry>
        </mxCell>
        <mxCell id="inHCAh-rtTuk2Lil4JLo-53" value="Yes" style="edgeLabel;resizable=0;html=1;align=center;verticalAlign=middle;" parent="inHCAh-rtTuk2Lil4JLo-52" connectable="0" vertex="1">
          <mxGeometry relative="1" as="geometry" />
        </mxCell>
        <mxCell id="inHCAh-rtTuk2Lil4JLo-54" value="" style="endArrow=classic;html=1;rounded=0;exitX=1;exitY=0.5;exitDx=0;exitDy=0;entryX=0.5;entryY=0;entryDx=0;entryDy=0;edgeStyle=orthogonalEdgeStyle;" parent="1" source="inHCAh-rtTuk2Lil4JLo-4" target="inHCAh-rtTuk2Lil4JLo-81" edge="1">
          <mxGeometry relative="1" as="geometry">
            <mxPoint x="1047" y="533" as="sourcePoint" />
            <mxPoint x="962" y="641" as="targetPoint" />
          </mxGeometry>
        </mxCell>
        <mxCell id="inHCAh-rtTuk2Lil4JLo-55" value="No" style="edgeLabel;resizable=0;html=1;align=center;verticalAlign=middle;" parent="inHCAh-rtTuk2Lil4JLo-54" connectable="0" vertex="1">
          <mxGeometry relative="1" as="geometry" />
        </mxCell>
        <mxCell id="inHCAh-rtTuk2Lil4JLo-56" value="" style="endArrow=classic;html=1;rounded=0;exitX=0.5;exitY=1;exitDx=0;exitDy=0;entryX=0.5;entryY=0;entryDx=0;entryDy=0;" parent="1" source="inHCAh-rtTuk2Lil4JLo-33" target="inHCAh-rtTuk2Lil4JLo-13" edge="1">
          <mxGeometry width="50" height="50" relative="1" as="geometry">
            <mxPoint x="103.38" y="1103" as="sourcePoint" />
            <mxPoint x="153.38" y="1053" as="targetPoint" />
          </mxGeometry>
        </mxCell>
        <mxCell id="inHCAh-rtTuk2Lil4JLo-58" value="" style="endArrow=classic;html=1;rounded=0;exitX=0;exitY=0.5;exitDx=0;exitDy=0;edgeStyle=orthogonalEdgeStyle;entryX=0.5;entryY=0;entryDx=0;entryDy=0;" parent="1" source="inHCAh-rtTuk2Lil4JLo-13" target="inHCAh-rtTuk2Lil4JLo-14" edge="1">
          <mxGeometry relative="1" as="geometry">
            <mxPoint x="90.38" y="1235" as="sourcePoint" />
            <mxPoint x="195" y="1293.5" as="targetPoint" />
          </mxGeometry>
        </mxCell>
        <mxCell id="inHCAh-rtTuk2Lil4JLo-59" value="No" style="edgeLabel;resizable=0;html=1;align=center;verticalAlign=middle;" parent="inHCAh-rtTuk2Lil4JLo-58" connectable="0" vertex="1">
          <mxGeometry relative="1" as="geometry" />
        </mxCell>
        <mxCell id="inHCAh-rtTuk2Lil4JLo-60" value="" style="endArrow=classic;html=1;rounded=0;entryX=0.5;entryY=0;entryDx=0;entryDy=0;exitX=1;exitY=0.5;exitDx=0;exitDy=0;edgeStyle=orthogonalEdgeStyle;" parent="1" source="inHCAh-rtTuk2Lil4JLo-13" target="inHCAh-rtTuk2Lil4JLo-15" edge="1">
          <mxGeometry relative="1" as="geometry">
            <mxPoint x="230.38" y="1221" as="sourcePoint" />
            <mxPoint x="208.38" y="1313" as="targetPoint" />
          </mxGeometry>
        </mxCell>
        <mxCell id="inHCAh-rtTuk2Lil4JLo-61" value="Yes" style="edgeLabel;resizable=0;html=1;align=center;verticalAlign=middle;" parent="inHCAh-rtTuk2Lil4JLo-60" connectable="0" vertex="1">
          <mxGeometry relative="1" as="geometry" />
        </mxCell>
        <mxCell id="inHCAh-rtTuk2Lil4JLo-62" value="++healthy_count" style="rounded=0;whiteSpace=wrap;html=1;" parent="1" vertex="1">
          <mxGeometry x="756.5" y="1462.5" width="139" height="39" as="geometry" />
        </mxCell>
        <mxCell id="inHCAh-rtTuk2Lil4JLo-63" value="分片healthy" style="ellipse;whiteSpace=wrap;html=1;" parent="1" vertex="1">
          <mxGeometry x="753" y="1222" width="146" height="52" as="geometry" />
        </mxCell>
        <mxCell id="inHCAh-rtTuk2Lil4JLo-64" value="" style="endArrow=classic;html=1;rounded=0;exitX=0.5;exitY=1;exitDx=0;exitDy=0;entryX=0.5;entryY=0;entryDx=0;entryDy=0;" parent="1" source="inHCAh-rtTuk2Lil4JLo-63" target="inHCAh-rtTuk2Lil4JLo-62" edge="1">
          <mxGeometry width="50" height="50" relative="1" as="geometry">
            <mxPoint x="572" y="1194" as="sourcePoint" />
            <mxPoint x="622" y="1144" as="targetPoint" />
          </mxGeometry>
        </mxCell>
        <mxCell id="inHCAh-rtTuk2Lil4JLo-65" value="" style="endArrow=classic;html=1;rounded=0;exitX=0.5;exitY=1;exitDx=0;exitDy=0;entryX=0.463;entryY=-0.013;entryDx=0;entryDy=0;entryPerimeter=0;" parent="1" edge="1">
          <mxGeometry width="50" height="50" relative="1" as="geometry">
            <mxPoint x="195.3800000000001" y="1339" as="sourcePoint" />
            <mxPoint x="300.37453" y="1455.493" as="targetPoint" />
          </mxGeometry>
        </mxCell>
        <mxCell id="inHCAh-rtTuk2Lil4JLo-66" value="" style="endArrow=classic;html=1;rounded=0;exitX=0.5;exitY=1;exitDx=0;exitDy=0;entryX=0.5;entryY=0;entryDx=0;entryDy=0;" parent="1" source="inHCAh-rtTuk2Lil4JLo-15" edge="1">
          <mxGeometry width="50" height="50" relative="1" as="geometry">
            <mxPoint x="493.38" y="1441" as="sourcePoint" />
            <mxPoint x="308.4149999999999" y="1456" as="targetPoint" />
          </mxGeometry>
        </mxCell>
        <mxCell id="inHCAh-rtTuk2Lil4JLo-68" value="处理add_secondary_actions中的action&lt;br&gt;处理过程中考虑到了流控配置" style="rounded=0;whiteSpace=wrap;html=1;align=left;" parent="1" vertex="1">
          <mxGeometry x="198.73" y="1560" width="217.31" height="39" as="geometry" />
        </mxCell>
        <mxCell id="inHCAh-rtTuk2Lil4JLo-69" value="所有分片遍历完成" style="rhombus;whiteSpace=wrap;html=1;" parent="1" vertex="1">
          <mxGeometry x="242.38" y="1456" width="130" height="52" as="geometry" />
        </mxCell>
        <mxCell id="inHCAh-rtTuk2Lil4JLo-71" value="" style="endArrow=classic;html=1;rounded=0;exitX=0;exitY=0.5;exitDx=0;exitDy=0;edgeStyle=orthogonalEdgeStyle;" parent="1" source="inHCAh-rtTuk2Lil4JLo-69" edge="1">
          <mxGeometry relative="1" as="geometry">
            <mxPoint x="117" y="1235" as="sourcePoint" />
            <mxPoint x="572" y="286" as="targetPoint" />
            <Array as="points">
              <mxPoint x="78" y="1482" />
              <mxPoint x="78" y="286" />
            </Array>
          </mxGeometry>
        </mxCell>
        <mxCell id="inHCAh-rtTuk2Lil4JLo-72" value="No" style="edgeLabel;resizable=0;html=1;align=center;verticalAlign=middle;" parent="inHCAh-rtTuk2Lil4JLo-71" connectable="0" vertex="1">
          <mxGeometry relative="1" as="geometry" />
        </mxCell>
        <mxCell id="inHCAh-rtTuk2Lil4JLo-74" value="" style="endArrow=classic;html=1;rounded=0;exitX=0.5;exitY=1;exitDx=0;exitDy=0;entryX=0.5;entryY=0;entryDx=0;entryDy=0;" parent="1" source="inHCAh-rtTuk2Lil4JLo-69" target="inHCAh-rtTuk2Lil4JLo-68" edge="1">
          <mxGeometry relative="1" as="geometry">
            <mxPoint x="169" y="1306.5" as="sourcePoint" />
            <mxPoint x="269" y="1306.5" as="targetPoint" />
          </mxGeometry>
        </mxCell>
        <mxCell id="inHCAh-rtTuk2Lil4JLo-75" value="Yes" style="edgeLabel;resizable=0;html=1;align=center;verticalAlign=middle;" parent="inHCAh-rtTuk2Lil4JLo-74" connectable="0" vertex="1">
          <mxGeometry relative="1" as="geometry" />
        </mxCell>
        <mxCell id="inHCAh-rtTuk2Lil4JLo-77" value="" style="endArrow=classic;html=1;rounded=0;exitX=0;exitY=0.5;exitDx=0;exitDy=0;entryX=1;entryY=0.5;entryDx=0;entryDy=0;" parent="1" source="inHCAh-rtTuk2Lil4JLo-62" target="inHCAh-rtTuk2Lil4JLo-69" edge="1">
          <mxGeometry relative="1" as="geometry">
            <mxPoint x="585" y="1261" as="sourcePoint" />
            <mxPoint x="685" y="1261" as="targetPoint" />
          </mxGeometry>
        </mxCell>
        <mxCell id="inHCAh-rtTuk2Lil4JLo-79" value="" style="endArrow=classic;html=1;rounded=0;exitX=0.5;exitY=1;exitDx=0;exitDy=0;entryX=0.5;entryY=0;entryDx=0;entryDy=0;" parent="1" source="inHCAh-rtTuk2Lil4JLo-68" target="inHCAh-rtTuk2Lil4JLo-18" edge="1">
          <mxGeometry width="50" height="50" relative="1" as="geometry">
            <mxPoint x="533" y="1590" as="sourcePoint" />
            <mxPoint x="583" y="1540" as="targetPoint" />
          </mxGeometry>
        </mxCell>
        <mxCell id="inHCAh-rtTuk2Lil4JLo-81" value="&lt;span&gt;config_context.lb_action.clear()&lt;/span&gt;" style="rounded=0;whiteSpace=wrap;html=1;" parent="1" vertex="1">
          <mxGeometry x="735" y="613" width="182" height="26" as="geometry" />
        </mxCell>
        <mxCell id="inHCAh-rtTuk2Lil4JLo-82" value="" style="endArrow=classic;html=1;rounded=0;exitX=0.5;exitY=1;exitDx=0;exitDy=0;" parent="1" source="inHCAh-rtTuk2Lil4JLo-81" target="inHCAh-rtTuk2Lil4JLo-34" edge="1">
          <mxGeometry width="50" height="50" relative="1" as="geometry">
            <mxPoint x="533" y="791" as="sourcePoint" />
            <mxPoint x="583" y="741" as="targetPoint" />
          </mxGeometry>
        </mxCell>
        <mxCell id="inHCAh-rtTuk2Lil4JLo-83" value="根据实际情况弄一个新的action塞入config_context.lb_action" style="rounded=0;whiteSpace=wrap;html=1;align=left;" parent="1" vertex="1">
          <mxGeometry x="532.38" y="767" width="182" height="39" as="geometry" />
        </mxCell>
        <mxCell id="inHCAh-rtTuk2Lil4JLo-84" value="CT_ADD_SECONDARY 的action塞入 config_context.lb_action" style="rounded=0;whiteSpace=wrap;html=1;align=left;" parent="1" vertex="1">
          <mxGeometry x="532.38" y="884" width="182" height="39" as="geometry" />
        </mxCell>
        <mxCell id="inHCAh-rtTuk2Lil4JLo-85" value="CT_REMOVE类型的action塞入config_context.lb_action&lt;br&gt;&amp;nbsp;" style="rounded=0;whiteSpace=wrap;html=1;align=left;" parent="1" vertex="1">
          <mxGeometry x="532.38" y="1007.5" width="182" height="39" as="geometry" />
        </mxCell>
        <mxCell id="inHCAh-rtTuk2Lil4JLo-87" value="" style="endArrow=classic;html=1;rounded=0;exitX=0.5;exitY=1;exitDx=0;exitDy=0;entryX=0.5;entryY=0;entryDx=0;entryDy=0;" parent="1" source="inHCAh-rtTuk2Lil4JLo-20" target="inHCAh-rtTuk2Lil4JLo-22" edge="1">
          <mxGeometry relative="1" as="geometry">
            <mxPoint x="637" y="1781" as="sourcePoint" />
            <mxPoint x="737" y="1781" as="targetPoint" />
          </mxGeometry>
        </mxCell>
        <mxCell id="inHCAh-rtTuk2Lil4JLo-88" value="Yes" style="edgeLabel;resizable=0;html=1;align=center;verticalAlign=middle;" parent="inHCAh-rtTuk2Lil4JLo-87" connectable="0" vertex="1">
          <mxGeometry relative="1" as="geometry" />
        </mxCell>
        <mxCell id="inHCAh-rtTuk2Lil4JLo-89" value="" style="endArrow=classic;html=1;rounded=0;exitX=0;exitY=0.5;exitDx=0;exitDy=0;" parent="1" source="inHCAh-rtTuk2Lil4JLo-26" edge="1">
          <mxGeometry width="50" height="50" relative="1" as="geometry">
            <mxPoint x="169" y="1870" as="sourcePoint" />
            <mxPoint x="307" y="1918" as="targetPoint" />
          </mxGeometry>
        </mxCell>
        <mxCell id="inHCAh-rtTuk2Lil4JLo-90" value="" style="endArrow=classic;html=1;rounded=0;exitX=0.5;exitY=1;exitDx=0;exitDy=0;entryX=0.5;entryY=0;entryDx=0;entryDy=0;" parent="1" source="inHCAh-rtTuk2Lil4JLo-22" target="inHCAh-rtTuk2Lil4JLo-26" edge="1">
          <mxGeometry width="50" height="50" relative="1" as="geometry">
            <mxPoint x="208" y="1857" as="sourcePoint" />
            <mxPoint x="258" y="1807" as="targetPoint" />
          </mxGeometry>
        </mxCell>
        <mxCell id="inHCAh-rtTuk2Lil4JLo-92" value="&lt;span&gt;计算(分析)balance实际需要执行的操作&lt;/span&gt;&lt;br&gt;&lt;span&gt;输出: migration_map :&amp;nbsp;&amp;nbsp;&lt;/span&gt;&lt;span&gt;map(gpid, configuration_balancer_request)&lt;/span&gt;" style="rounded=1;whiteSpace=wrap;html=1;align=left;fillColor=#66FF66;" parent="1" vertex="1">
          <mxGeometry x="936" y="1682.5" width="232" height="52" as="geometry" />
        </mxCell>
        <mxCell id="inHCAh-rtTuk2Lil4JLo-93" value="" style="endArrow=classic;html=1;rounded=0;exitX=0.5;exitY=1;exitDx=0;exitDy=0;entryX=0.5;entryY=0;entryDx=0;entryDy=0;" parent="1" source="inHCAh-rtTuk2Lil4JLo-18" target="inHCAh-rtTuk2Lil4JLo-19" edge="1">
          <mxGeometry relative="1" as="geometry">
            <mxPoint x="312" y="1820" as="sourcePoint" />
            <mxPoint x="412" y="1820" as="targetPoint" />
          </mxGeometry>
        </mxCell>
        <mxCell id="inHCAh-rtTuk2Lil4JLo-94" value="Yes" style="edgeLabel;resizable=0;html=1;align=center;verticalAlign=middle;" parent="inHCAh-rtTuk2Lil4JLo-93" connectable="0" vertex="1">
          <mxGeometry relative="1" as="geometry" />
        </mxCell>
        <mxCell id="inHCAh-rtTuk2Lil4JLo-95" value="" style="endArrow=classic;html=1;rounded=0;exitX=1;exitY=0.5;exitDx=0;exitDy=0;entryX=0;entryY=0.5;entryDx=0;entryDy=0;" parent="1" source="inHCAh-rtTuk2Lil4JLo-18" target="inHCAh-rtTuk2Lil4JLo-20" edge="1">
          <mxGeometry relative="1" as="geometry">
            <mxPoint x="481" y="1651" as="sourcePoint" />
            <mxPoint x="581" y="1651" as="targetPoint" />
          </mxGeometry>
        </mxCell>
        <mxCell id="inHCAh-rtTuk2Lil4JLo-96" value="No" style="edgeLabel;resizable=0;html=1;align=center;verticalAlign=middle;" parent="inHCAh-rtTuk2Lil4JLo-95" connectable="0" vertex="1">
          <mxGeometry relative="1" as="geometry" />
        </mxCell>
        <mxCell id="inHCAh-rtTuk2Lil4JLo-98" value="" style="endArrow=classic;html=1;rounded=0;entryX=0;entryY=0.5;entryDx=0;entryDy=0;exitX=1;exitY=0.5;exitDx=0;exitDy=0;" parent="1" source="inHCAh-rtTuk2Lil4JLo-20" target="inHCAh-rtTuk2Lil4JLo-92" edge="1">
          <mxGeometry relative="1" as="geometry">
            <mxPoint x="715" y="1703" as="sourcePoint" />
            <mxPoint x="815" y="1703" as="targetPoint" />
          </mxGeometry>
        </mxCell>
        <mxCell id="inHCAh-rtTuk2Lil4JLo-99" value="No" style="edgeLabel;resizable=0;html=1;align=center;verticalAlign=middle;" parent="inHCAh-rtTuk2Lil4JLo-98" connectable="0" vertex="1">
          <mxGeometry relative="1" as="geometry" />
        </mxCell>
        <mxCell id="inHCAh-rtTuk2Lil4JLo-100" value="" style="endArrow=classic;html=1;rounded=0;exitX=0.444;exitY=0.99;exitDx=0;exitDy=0;exitPerimeter=0;entryX=0.5;entryY=0;entryDx=0;entryDy=0;" parent="1" source="inHCAh-rtTuk2Lil4JLo-92" target="inHCAh-rtTuk2Lil4JLo-24" edge="1">
          <mxGeometry width="50" height="50" relative="1" as="geometry">
            <mxPoint x="1079" y="1805" as="sourcePoint" />
            <mxPoint x="1129" y="1755" as="targetPoint" />
          </mxGeometry>
        </mxCell>
        <mxCell id="inHCAh-rtTuk2Lil4JLo-102" value="" style="endArrow=classic;html=1;rounded=0;exitX=0.5;exitY=1;exitDx=0;exitDy=0;" parent="1" target="inHCAh-rtTuk2Lil4JLo-27" edge="1">
          <mxGeometry width="50" height="50" relative="1" as="geometry">
            <mxPoint x="1040" y="1937" as="sourcePoint" />
            <mxPoint x="1272" y="1859" as="targetPoint" />
          </mxGeometry>
        </mxCell>
        <mxCell id="inHCAh-rtTuk2Lil4JLo-103" value="" style="endArrow=classic;html=1;rounded=0;exitX=0.5;exitY=1;exitDx=0;exitDy=0;" parent="1" source="inHCAh-rtTuk2Lil4JLo-24" edge="1">
          <mxGeometry relative="1" as="geometry">
            <mxPoint x="1170" y="1833" as="sourcePoint" />
            <mxPoint x="1040" y="1898" as="targetPoint" />
          </mxGeometry>
        </mxCell>
        <mxCell id="inHCAh-rtTuk2Lil4JLo-104" value="Yes" style="edgeLabel;resizable=0;html=1;align=center;verticalAlign=middle;" parent="inHCAh-rtTuk2Lil4JLo-103" connectable="0" vertex="1">
          <mxGeometry relative="1" as="geometry" />
        </mxCell>
        <mxCell id="inHCAh-rtTuk2Lil4JLo-105" value="" style="endArrow=classic;html=1;rounded=0;exitX=0;exitY=0.5;exitDx=0;exitDy=0;entryX=1;entryY=0.5;entryDx=0;entryDy=0;" parent="1" source="inHCAh-rtTuk2Lil4JLo-27" target="inHCAh-rtTuk2Lil4JLo-19" edge="1">
          <mxGeometry width="50" height="50" relative="1" as="geometry">
            <mxPoint x="637" y="2104" as="sourcePoint" />
            <mxPoint x="687" y="2054" as="targetPoint" />
          </mxGeometry>
        </mxCell>
        <mxCell id="inHCAh-rtTuk2Lil4JLo-106" value="" style="endArrow=classic;html=1;rounded=0;exitX=0;exitY=0.5;exitDx=0;exitDy=0;entryX=1;entryY=0.5;entryDx=0;entryDy=0;" parent="1" source="inHCAh-rtTuk2Lil4JLo-35" target="inHCAh-rtTuk2Lil4JLo-83" edge="1">
          <mxGeometry relative="1" as="geometry">
            <mxPoint x="689" y="845" as="sourcePoint" />
            <mxPoint x="789" y="845" as="targetPoint" />
          </mxGeometry>
        </mxCell>
        <mxCell id="inHCAh-rtTuk2Lil4JLo-107" value="Yes" style="edgeLabel;resizable=0;html=1;align=center;verticalAlign=middle;" parent="inHCAh-rtTuk2Lil4JLo-106" connectable="0" vertex="1">
          <mxGeometry relative="1" as="geometry" />
        </mxCell>
        <mxCell id="inHCAh-rtTuk2Lil4JLo-109" value="" style="endArrow=classic;html=1;rounded=0;entryX=1;entryY=0.5;entryDx=0;entryDy=0;" parent="1" edge="1">
          <mxGeometry relative="1" as="geometry">
            <mxPoint x="777" y="903" as="sourcePoint" />
            <mxPoint x="714.3800000000001" y="903" as="targetPoint" />
          </mxGeometry>
        </mxCell>
        <mxCell id="inHCAh-rtTuk2Lil4JLo-110" value="Yes" style="edgeLabel;resizable=0;html=1;align=center;verticalAlign=middle;" parent="inHCAh-rtTuk2Lil4JLo-109" connectable="0" vertex="1">
          <mxGeometry relative="1" as="geometry" />
        </mxCell>
        <mxCell id="inHCAh-rtTuk2Lil4JLo-111" value="" style="endArrow=classic;html=1;rounded=0;exitX=0;exitY=0.5;exitDx=0;exitDy=0;entryX=1;entryY=0.5;entryDx=0;entryDy=0;" parent="1" edge="1">
          <mxGeometry relative="1" as="geometry">
            <mxPoint x="777" y="1026.5" as="sourcePoint" />
            <mxPoint x="714.3800000000001" y="1026.5" as="targetPoint" />
          </mxGeometry>
        </mxCell>
        <mxCell id="inHCAh-rtTuk2Lil4JLo-112" value="Yes" style="edgeLabel;resizable=0;html=1;align=center;verticalAlign=middle;" parent="inHCAh-rtTuk2Lil4JLo-111" connectable="0" vertex="1">
          <mxGeometry relative="1" as="geometry" />
        </mxCell>
        <mxCell id="inHCAh-rtTuk2Lil4JLo-114" value="" style="endArrow=classic;html=1;rounded=0;exitX=0;exitY=0.5;exitDx=0;exitDy=0;" parent="1" source="inHCAh-rtTuk2Lil4JLo-83" edge="1">
          <mxGeometry width="50" height="50" relative="1" as="geometry">
            <mxPoint x="416" y="895" as="sourcePoint" />
            <mxPoint x="299" y="787" as="targetPoint" />
          </mxGeometry>
        </mxCell>
        <mxCell id="inHCAh-rtTuk2Lil4JLo-115" value="" style="endArrow=classic;html=1;rounded=0;exitX=0;exitY=0.5;exitDx=0;exitDy=0;" parent="1" source="inHCAh-rtTuk2Lil4JLo-84" edge="1">
          <mxGeometry width="50" height="50" relative="1" as="geometry">
            <mxPoint x="390" y="947" as="sourcePoint" />
            <mxPoint x="299" y="904" as="targetPoint" />
          </mxGeometry>
        </mxCell>
        <mxCell id="inHCAh-rtTuk2Lil4JLo-116" value="" style="endArrow=classic;html=1;rounded=0;exitX=0;exitY=0.5;exitDx=0;exitDy=0;" parent="1" source="inHCAh-rtTuk2Lil4JLo-85" edge="1">
          <mxGeometry width="50" height="50" relative="1" as="geometry">
            <mxPoint x="455" y="999" as="sourcePoint" />
            <mxPoint x="299" y="1027" as="targetPoint" />
          </mxGeometry>
        </mxCell>
        <mxCell id="inHCAh-rtTuk2Lil4JLo-118" value="" style="edgeStyle=orthogonalEdgeStyle;rounded=0;orthogonalLoop=1;jettySize=auto;html=1;" parent="1" source="inHCAh-rtTuk2Lil4JLo-117" target="inHCAh-rtTuk2Lil4JLo-27" edge="1">
          <mxGeometry relative="1" as="geometry" />
        </mxCell>
        <mxCell id="inHCAh-rtTuk2Lil4JLo-117" value="&lt;span style=&quot;text-align: left&quot;&gt;执行 migration_map :&amp;nbsp;&amp;nbsp;&lt;/span&gt;&lt;span style=&quot;text-align: left&quot;&gt;map(gpid, configuration_balancer_request)&lt;/span&gt;" style="rounded=1;whiteSpace=wrap;html=1;fillColor=#66FF66;" parent="1" vertex="1">
          <mxGeometry x="903.5" y="1898" width="273" height="52" as="geometry" />
        </mxCell>
        <mxCell id="inHCAh-rtTuk2Lil4JLo-119" value="meta_service::balancer_run" style="rounded=0;whiteSpace=wrap;html=1;fillColor=#FFFFFF;" parent="1" vertex="1">
          <mxGeometry x="488.04" y="52" width="173.31" height="39" as="geometry" />
        </mxCell>
        <mxCell id="inHCAh-rtTuk2Lil4JLo-120" value="sever_state::check_all_partitions" style="rounded=0;whiteSpace=wrap;html=1;fillColor=#FFFFFF;" parent="1" vertex="1">
          <mxGeometry x="488.03" y="130" width="173.31" height="39" as="geometry" />
        </mxCell>
        <mxCell id="inHCAh-rtTuk2Lil4JLo-121" value="" style="endArrow=classic;html=1;rounded=0;exitX=0.5;exitY=1;exitDx=0;exitDy=0;entryX=0.5;entryY=0;entryDx=0;entryDy=0;" parent="1" source="inHCAh-rtTuk2Lil4JLo-119" target="inHCAh-rtTuk2Lil4JLo-120" edge="1">
          <mxGeometry width="50" height="50" relative="1" as="geometry">
            <mxPoint x="273" y="167" as="sourcePoint" />
            <mxPoint x="323" y="117" as="targetPoint" />
          </mxGeometry>
        </mxCell>
        <mxCell id="inHCAh-rtTuk2Lil4JLo-122" value="" style="endArrow=classic;html=1;rounded=0;exitX=0.5;exitY=1;exitDx=0;exitDy=0;entryX=0.5;entryY=0;entryDx=0;entryDy=0;" parent="1" source="inHCAh-rtTuk2Lil4JLo-120" target="inHCAh-rtTuk2Lil4JLo-1" edge="1">
          <mxGeometry width="50" height="50" relative="1" as="geometry">
            <mxPoint x="587.6949999999999" y="104" as="sourcePoint" />
            <mxPoint x="587.685" y="143" as="targetPoint" />
          </mxGeometry>
        </mxCell>
        <mxCell id="0hxDmn6Wgr_d0VM1-wjn-1" value="开始balance分析" style="rounded=0;whiteSpace=wrap;html=1;" vertex="1" parent="1">
          <mxGeometry x="1062.5" y="65" width="175" height="50" as="geometry" />
        </mxCell>
        <mxCell id="0hxDmn6Wgr_d0VM1-wjn-2" value="primary-balance分析" style="rounded=0;whiteSpace=wrap;html=1;fillColor=#33FF33;" vertex="1" parent="1">
          <mxGeometry x="1062.5" y="269" width="175" height="50" as="geometry" />
        </mxCell>
        <mxCell id="0hxDmn6Wgr_d0VM1-wjn-3" value="secondary-balance分析" style="rounded=0;whiteSpace=wrap;html=1;fillColor=#33FF33;" vertex="1" parent="1">
          <mxGeometry x="1310.5" y="399" width="175" height="50" as="geometry" />
        </mxCell>
        <mxCell id="0hxDmn6Wgr_d0VM1-wjn-4" value="migration_map非空 || 配置项只允许primary-balance操作" style="rhombus;whiteSpace=wrap;html=1;" vertex="1" parent="1">
          <mxGeometry x="1040" y="364" width="220" height="120" as="geometry" />
        </mxCell>
        <mxCell id="0hxDmn6Wgr_d0VM1-wjn-5" value="结束" style="rounded=0;whiteSpace=wrap;html=1;" vertex="1" parent="1">
          <mxGeometry x="1071" y="539" width="158" height="30" as="geometry" />
        </mxCell>
        <mxCell id="0hxDmn6Wgr_d0VM1-wjn-6" value="" style="endArrow=classic;html=1;rounded=0;exitX=0.5;exitY=1;exitDx=0;exitDy=0;entryX=0.5;entryY=0;entryDx=0;entryDy=0;" edge="1" parent="1" source="0hxDmn6Wgr_d0VM1-wjn-1" target="0hxDmn6Wgr_d0VM1-wjn-12">
          <mxGeometry width="50" height="50" relative="1" as="geometry">
            <mxPoint x="1390.5" y="269" as="sourcePoint" />
            <mxPoint x="1150" y="169" as="targetPoint" />
          </mxGeometry>
        </mxCell>
        <mxCell id="0hxDmn6Wgr_d0VM1-wjn-7" value="" style="endArrow=classic;html=1;rounded=0;exitX=0.5;exitY=1;exitDx=0;exitDy=0;entryX=0.5;entryY=0;entryDx=0;entryDy=0;" edge="1" parent="1" source="0hxDmn6Wgr_d0VM1-wjn-2" target="0hxDmn6Wgr_d0VM1-wjn-4">
          <mxGeometry relative="1" as="geometry">
            <mxPoint x="1360.5" y="329" as="sourcePoint" />
            <mxPoint x="1460.5" y="329" as="targetPoint" />
          </mxGeometry>
        </mxCell>
        <mxCell id="0hxDmn6Wgr_d0VM1-wjn-8" value="" style="endArrow=classic;html=1;rounded=0;exitX=0.5;exitY=1;exitDx=0;exitDy=0;" edge="1" parent="1" source="0hxDmn6Wgr_d0VM1-wjn-4" target="0hxDmn6Wgr_d0VM1-wjn-5">
          <mxGeometry relative="1" as="geometry">
            <mxPoint x="1270.5" y="529" as="sourcePoint" />
            <mxPoint x="1370.5" y="529" as="targetPoint" />
          </mxGeometry>
        </mxCell>
        <mxCell id="0hxDmn6Wgr_d0VM1-wjn-9" value="Yes" style="edgeLabel;resizable=0;html=1;align=center;verticalAlign=middle;" connectable="0" vertex="1" parent="0hxDmn6Wgr_d0VM1-wjn-8">
          <mxGeometry relative="1" as="geometry" />
        </mxCell>
        <mxCell id="0hxDmn6Wgr_d0VM1-wjn-10" value="" style="endArrow=classic;html=1;rounded=0;exitX=1;exitY=0.5;exitDx=0;exitDy=0;entryX=0;entryY=0.5;entryDx=0;entryDy=0;" edge="1" parent="1" source="0hxDmn6Wgr_d0VM1-wjn-4" target="0hxDmn6Wgr_d0VM1-wjn-3">
          <mxGeometry width="50" height="50" relative="1" as="geometry">
            <mxPoint x="1260.5" y="509" as="sourcePoint" />
            <mxPoint x="1310.5" y="459" as="targetPoint" />
          </mxGeometry>
        </mxCell>
        <mxCell id="0hxDmn6Wgr_d0VM1-wjn-11" value="No" style="edgeLabel;html=1;align=center;verticalAlign=middle;resizable=0;points=[];" vertex="1" connectable="0" parent="0hxDmn6Wgr_d0VM1-wjn-10">
          <mxGeometry x="-0.5603" relative="1" as="geometry">
            <mxPoint x="1" as="offset" />
          </mxGeometry>
        </mxCell>
        <mxCell id="0hxDmn6Wgr_d0VM1-wjn-12" value="为后续流程初始化了两个数据结构&lt;br&gt;address_id : rpc_address -&amp;gt; idx&lt;br&gt;address_vec : idx-&amp;gt;rpc_address&lt;br&gt;其实就是为每个节点对应一个数字标号，方便后续操作" style="rounded=0;whiteSpace=wrap;html=1;align=left;" vertex="1" parent="1">
          <mxGeometry x="1048.63" y="156" width="202.75" height="78" as="geometry" />
        </mxCell>
        <mxCell id="0hxDmn6Wgr_d0VM1-wjn-13" value="" style="endArrow=classic;html=1;rounded=0;exitX=0.5;exitY=1;exitDx=0;exitDy=0;entryX=0.5;entryY=0;entryDx=0;entryDy=0;" edge="1" parent="1" source="0hxDmn6Wgr_d0VM1-wjn-12" target="0hxDmn6Wgr_d0VM1-wjn-2">
          <mxGeometry width="50" height="50" relative="1" as="geometry">
            <mxPoint x="1326" y="297" as="sourcePoint" />
            <mxPoint x="1376" y="247" as="targetPoint" />
          </mxGeometry>
        </mxCell>
        <mxCell id="0hxDmn6Wgr_d0VM1-wjn-14" value="[10.10.10.1:8171, 10.10.10.2:8171]&lt;br&gt;&lt;br&gt;address_id = {&quot;10.10.10.1:8171&lt;br&gt;&quot; : 1, &quot;10.10.10.2:8171&lt;br&gt;&quot; : 2}&lt;br&gt;&lt;br&gt;address_vec = [&quot;&quot;, &quot;10.10.10.1:8171&lt;br&gt;&quot;, &quot;10.10.10.2:8171&lt;br&gt;&quot;, &quot;&quot;]" style="shape=document;whiteSpace=wrap;html=1;boundedLbl=1;align=left;" vertex="1" parent="1">
          <mxGeometry x="1326" y="104" width="273" height="182" as="geometry" />
        </mxCell>
        <mxCell id="0hxDmn6Wgr_d0VM1-wjn-15" value="" style="endArrow=none;html=1;rounded=0;exitX=1;exitY=0.5;exitDx=0;exitDy=0;entryX=0;entryY=0.5;entryDx=0;entryDy=0;" edge="1" parent="1" source="0hxDmn6Wgr_d0VM1-wjn-12" target="0hxDmn6Wgr_d0VM1-wjn-14">
          <mxGeometry width="50" height="50" relative="1" as="geometry">
            <mxPoint x="1313" y="141" as="sourcePoint" />
            <mxPoint x="1363" y="91" as="targetPoint" />
          </mxGeometry>
        </mxCell>
        <mxCell id="0hxDmn6Wgr_d0VM1-wjn-16" value="开始处理某个app" style="rounded=0;whiteSpace=wrap;html=1;" vertex="1" parent="1">
          <mxGeometry x="295" y="2367" width="175" height="50" as="geometry" />
        </mxCell>
        <mxCell id="0hxDmn6Wgr_d0VM1-wjn-17" value="配置忽略的app || unavailabe的app ||&lt;br&gt;正在splitting的app" style="rhombus;whiteSpace=wrap;html=1;fillColor=#FFFFFF;" vertex="1" parent="1">
          <mxGeometry x="313.25" y="2457" width="138.5" height="120" as="geometry" />
        </mxCell>
        <mxCell id="0hxDmn6Wgr_d0VM1-wjn-18" value="" style="endArrow=classic;html=1;rounded=0;exitX=0.5;exitY=1;exitDx=0;exitDy=0;entryX=0.5;entryY=0;entryDx=0;entryDy=0;" edge="1" parent="1" source="0hxDmn6Wgr_d0VM1-wjn-38" target="0hxDmn6Wgr_d0VM1-wjn-16">
          <mxGeometry width="50" height="50" relative="1" as="geometry">
            <mxPoint x="382.5" y="2337" as="sourcePoint" />
            <mxPoint x="275" y="2477" as="targetPoint" />
            <Array as="points">
              <mxPoint x="383" y="2317" />
            </Array>
          </mxGeometry>
        </mxCell>
        <mxCell id="0hxDmn6Wgr_d0VM1-wjn-19" value="" style="endArrow=classic;html=1;rounded=0;exitX=0.5;exitY=1;exitDx=0;exitDy=0;entryX=0.5;entryY=0;entryDx=0;entryDy=0;" edge="1" parent="1" source="0hxDmn6Wgr_d0VM1-wjn-16" target="0hxDmn6Wgr_d0VM1-wjn-17">
          <mxGeometry width="50" height="50" relative="1" as="geometry">
            <mxPoint x="525" y="2497" as="sourcePoint" />
            <mxPoint x="575" y="2447" as="targetPoint" />
          </mxGeometry>
        </mxCell>
        <mxCell id="0hxDmn6Wgr_d0VM1-wjn-20" value="" style="endArrow=classic;html=1;rounded=0;exitX=0;exitY=0.5;exitDx=0;exitDy=0;edgeStyle=orthogonalEdgeStyle;" edge="1" parent="1" source="0hxDmn6Wgr_d0VM1-wjn-17">
          <mxGeometry width="50" height="50" relative="1" as="geometry">
            <mxPoint x="395" y="2687" as="sourcePoint" />
            <mxPoint x="383" y="2337" as="targetPoint" />
            <Array as="points">
              <mxPoint x="245" y="2517" />
              <mxPoint x="245" y="2337" />
              <mxPoint x="383" y="2337" />
            </Array>
          </mxGeometry>
        </mxCell>
        <mxCell id="0hxDmn6Wgr_d0VM1-wjn-21" value="Yes" style="edgeLabel;html=1;align=center;verticalAlign=middle;resizable=0;points=[];" vertex="1" connectable="0" parent="0hxDmn6Wgr_d0VM1-wjn-20">
          <mxGeometry x="-0.6742" relative="1" as="geometry">
            <mxPoint as="offset" />
          </mxGeometry>
        </mxCell>
        <mxCell id="0hxDmn6Wgr_d0VM1-wjn-22" value="构造网络流图" style="rounded=0;whiteSpace=wrap;html=1;fillColor=#66FF66;" vertex="1" parent="1">
          <mxGeometry x="319.75" y="2627" width="122" height="40" as="geometry" />
        </mxCell>
        <mxCell id="0hxDmn6Wgr_d0VM1-wjn-23" value="" style="endArrow=classic;html=1;rounded=0;exitX=0.5;exitY=1;exitDx=0;exitDy=0;entryX=0.5;entryY=0;entryDx=0;entryDy=0;" edge="1" parent="1" source="0hxDmn6Wgr_d0VM1-wjn-17" target="0hxDmn6Wgr_d0VM1-wjn-22">
          <mxGeometry relative="1" as="geometry">
            <mxPoint x="545" y="2597" as="sourcePoint" />
            <mxPoint x="382" y="2577" as="targetPoint" />
            <Array as="points" />
          </mxGeometry>
        </mxCell>
        <mxCell id="0hxDmn6Wgr_d0VM1-wjn-24" value="No" style="edgeLabel;resizable=0;html=1;align=center;verticalAlign=middle;fillColor=#FFFFFF;" connectable="0" vertex="1" parent="0hxDmn6Wgr_d0VM1-wjn-23">
          <mxGeometry relative="1" as="geometry" />
        </mxCell>
        <mxCell id="0hxDmn6Wgr_d0VM1-wjn-25" value="尝试找网络流图的增广路径" style="rounded=0;whiteSpace=wrap;html=1;fillColor=#66FF66;align=left;" vertex="1" parent="1">
          <mxGeometry x="319.75" y="2737" width="123" height="40" as="geometry" />
        </mxCell>
        <mxCell id="0hxDmn6Wgr_d0VM1-wjn-26" value="" style="endArrow=classic;html=1;rounded=0;exitX=0.5;exitY=1;exitDx=0;exitDy=0;entryX=0.5;entryY=0;entryDx=0;entryDy=0;" edge="1" parent="1" source="0hxDmn6Wgr_d0VM1-wjn-22" target="0hxDmn6Wgr_d0VM1-wjn-25">
          <mxGeometry width="50" height="50" relative="1" as="geometry">
            <mxPoint x="485" y="2787" as="sourcePoint" />
            <mxPoint x="535" y="2737" as="targetPoint" />
          </mxGeometry>
        </mxCell>
        <mxCell id="0hxDmn6Wgr_d0VM1-wjn-27" value="能找到一条增广路径path" style="rhombus;whiteSpace=wrap;html=1;fillColor=#FFFFFF;" vertex="1" parent="1">
          <mxGeometry x="304.38" y="2807" width="155.25" height="60" as="geometry" />
        </mxCell>
        <mxCell id="0hxDmn6Wgr_d0VM1-wjn-28" value="" style="endArrow=classic;html=1;rounded=0;exitX=0.5;exitY=1;exitDx=0;exitDy=0;entryX=0.5;entryY=0;entryDx=0;entryDy=0;" edge="1" parent="1" source="0hxDmn6Wgr_d0VM1-wjn-25" target="0hxDmn6Wgr_d0VM1-wjn-27">
          <mxGeometry width="50" height="50" relative="1" as="geometry">
            <mxPoint x="145" y="2817" as="sourcePoint" />
            <mxPoint x="195" y="2767" as="targetPoint" />
          </mxGeometry>
        </mxCell>
        <mxCell id="0hxDmn6Wgr_d0VM1-wjn-29" value="开始从路径path的末尾开始依次处理相邻的两个节点，同时记这条增广路径的流量为flow" style="rounded=0;whiteSpace=wrap;html=1;fillColor=#FFFFFF;align=left;" vertex="1" parent="1">
          <mxGeometry x="309" y="2927" width="144.5" height="60" as="geometry" />
        </mxCell>
        <mxCell id="0hxDmn6Wgr_d0VM1-wjn-30" value="" style="endArrow=classic;html=1;rounded=0;exitX=0.5;exitY=1;exitDx=0;exitDy=0;" edge="1" parent="1" source="0hxDmn6Wgr_d0VM1-wjn-27" target="0hxDmn6Wgr_d0VM1-wjn-29">
          <mxGeometry width="50" height="50" relative="1" as="geometry">
            <mxPoint x="175" y="2887" as="sourcePoint" />
            <mxPoint x="225" y="2837" as="targetPoint" />
          </mxGeometry>
        </mxCell>
        <mxCell id="0hxDmn6Wgr_d0VM1-wjn-31" value="Yes" style="edgeLabel;html=1;align=center;verticalAlign=middle;resizable=0;points=[];" vertex="1" connectable="0" parent="0hxDmn6Wgr_d0VM1-wjn-30">
          <mxGeometry x="0.025" y="2" relative="1" as="geometry">
            <mxPoint y="-1" as="offset" />
          </mxGeometry>
        </mxCell>
        <mxCell id="0hxDmn6Wgr_d0VM1-wjn-32" value="处理相邻的两个节点(from, to)" style="rounded=0;whiteSpace=wrap;html=1;fillColor=#FFFFFF;align=left;" vertex="1" parent="1">
          <mxGeometry x="309.5" y="3027" width="144" height="40" as="geometry" />
        </mxCell>
        <mxCell id="0hxDmn6Wgr_d0VM1-wjn-33" value="" style="endArrow=classic;html=1;rounded=0;exitX=0.5;exitY=1;exitDx=0;exitDy=0;entryX=0.5;entryY=0;entryDx=0;entryDy=0;" edge="1" parent="1" source="0hxDmn6Wgr_d0VM1-wjn-29" target="0hxDmn6Wgr_d0VM1-wjn-32">
          <mxGeometry width="50" height="50" relative="1" as="geometry">
            <mxPoint x="165" y="3077" as="sourcePoint" />
            <mxPoint x="215" y="3027" as="targetPoint" />
          </mxGeometry>
        </mxCell>
        <mxCell id="0hxDmn6Wgr_d0VM1-wjn-34" value="拿到from, to 两个节点关于正在处理的app的各个盘符的disk_load: from_disk_load, to_disk_load" style="rounded=0;whiteSpace=wrap;html=1;fillColor=#FFFFFF;align=left;" vertex="1" parent="1">
          <mxGeometry x="285" y="3107" width="194" height="60" as="geometry" />
        </mxCell>
        <mxCell id="0hxDmn6Wgr_d0VM1-wjn-35" value="" style="endArrow=classic;html=1;rounded=0;exitX=0.5;exitY=1;exitDx=0;exitDy=0;entryX=0.5;entryY=0;entryDx=0;entryDy=0;" edge="1" parent="1" source="0hxDmn6Wgr_d0VM1-wjn-32" target="0hxDmn6Wgr_d0VM1-wjn-34">
          <mxGeometry width="50" height="50" relative="1" as="geometry">
            <mxPoint x="85" y="3087" as="sourcePoint" />
            <mxPoint x="135" y="3037" as="targetPoint" />
          </mxGeometry>
        </mxCell>
        <mxCell id="0hxDmn6Wgr_d0VM1-wjn-36" value="将正在处理的app中主分片在from，有一个从分片在to上的所有分片的gpid收集成一个候选集：potential_moving" style="rounded=0;whiteSpace=wrap;html=1;fillColor=#FFFFFF;align=left;" vertex="1" parent="1">
          <mxGeometry x="282" y="3207" width="200" height="60" as="geometry" />
        </mxCell>
        <mxCell id="0hxDmn6Wgr_d0VM1-wjn-37" value="" style="endArrow=classic;html=1;rounded=0;exitX=0.5;exitY=1;exitDx=0;exitDy=0;entryX=0.5;entryY=0;entryDx=0;entryDy=0;" edge="1" parent="1" source="0hxDmn6Wgr_d0VM1-wjn-34" target="0hxDmn6Wgr_d0VM1-wjn-36">
          <mxGeometry width="50" height="50" relative="1" as="geometry">
            <mxPoint x="115" y="3197" as="sourcePoint" />
            <mxPoint x="165" y="3147" as="targetPoint" />
          </mxGeometry>
        </mxCell>
        <mxCell id="0hxDmn6Wgr_d0VM1-wjn-38" value="&lt;span&gt;开始遍历每个app&lt;/span&gt;" style="rounded=1;whiteSpace=wrap;html=1;fillColor=#FFFFFF;" vertex="1" parent="1">
          <mxGeometry x="323.5" y="2197" width="120" height="50" as="geometry" />
        </mxCell>
        <mxCell id="0hxDmn6Wgr_d0VM1-wjn-39" value="开始进行构造flow个MOVE_PRIMARY的configuration_balancer_request" style="rounded=1;whiteSpace=wrap;html=1;fillColor=#FFFFFF;align=left;" vertex="1" parent="1">
          <mxGeometry x="280" y="3307" width="204" height="60" as="geometry" />
        </mxCell>
        <mxCell id="0hxDmn6Wgr_d0VM1-wjn-40" value="" style="endArrow=classic;html=1;rounded=0;exitX=0.5;exitY=1;exitDx=0;exitDy=0;entryX=0.5;entryY=0;entryDx=0;entryDy=0;" edge="1" parent="1" source="0hxDmn6Wgr_d0VM1-wjn-36" target="0hxDmn6Wgr_d0VM1-wjn-39">
          <mxGeometry width="50" height="50" relative="1" as="geometry">
            <mxPoint x="75" y="3447" as="sourcePoint" />
            <mxPoint x="125" y="3397" as="targetPoint" />
          </mxGeometry>
        </mxCell>
        <mxCell id="0hxDmn6Wgr_d0VM1-wjn-41" value="开始构造第i个&lt;span style=&quot;text-align: left&quot;&gt;MOVE_PRIMARY的configuration_balancer_request&lt;/span&gt;" style="rounded=1;whiteSpace=wrap;html=1;fillColor=#FFFFFF;" vertex="1" parent="1">
          <mxGeometry x="280" y="3437" width="203" height="50" as="geometry" />
        </mxCell>
        <mxCell id="0hxDmn6Wgr_d0VM1-wjn-42" value="" style="endArrow=classic;html=1;rounded=0;exitX=0.5;exitY=1;exitDx=0;exitDy=0;entryX=0.5;entryY=0;entryDx=0;entryDy=0;" edge="1" parent="1" source="0hxDmn6Wgr_d0VM1-wjn-39" target="0hxDmn6Wgr_d0VM1-wjn-41">
          <mxGeometry width="50" height="50" relative="1" as="geometry">
            <mxPoint x="145" y="3417" as="sourcePoint" />
            <mxPoint x="195" y="3367" as="targetPoint" />
          </mxGeometry>
        </mxCell>
        <mxCell id="0hxDmn6Wgr_d0VM1-wjn-43" value="从potential_moving中选择from_disk_load[gpid在from节点的盘符] - to_disk_load[gpid在to节点的盘符] 最大的gpid" style="rounded=0;whiteSpace=wrap;html=1;fillColor=#FFFFFF;align=left;" vertex="1" parent="1">
          <mxGeometry x="251.5" y="3527" width="260" height="50" as="geometry" />
        </mxCell>
        <mxCell id="0hxDmn6Wgr_d0VM1-wjn-44" value="由gpid、from、to等构造一个&lt;span&gt;configuration_balancer_request(MOVE_PRIMARY)&lt;br&gt;并塞入migration_map&lt;br&gt;&lt;/span&gt;" style="rounded=0;whiteSpace=wrap;html=1;fillColor=#FFFFFF;align=left;" vertex="1" parent="1">
          <mxGeometry x="240.5" y="3627" width="285" height="60" as="geometry" />
        </mxCell>
        <mxCell id="0hxDmn6Wgr_d0VM1-wjn-45" value="--from_disk_load[gpid所在from节点的盘符]&lt;br&gt;++to_disk_load[gpid所在to节点的盘符]&lt;br&gt;potential_moving.erase(gpid)" style="rounded=0;whiteSpace=wrap;html=1;fillColor=#FFFFFF;align=left;" vertex="1" parent="1">
          <mxGeometry x="262" y="3737" width="240" height="60" as="geometry" />
        </mxCell>
        <mxCell id="0hxDmn6Wgr_d0VM1-wjn-46" value="&lt;span style=&quot;color: rgb(0 , 0 , 0) ; font-family: &amp;#34;helvetica&amp;#34; ; font-size: 12px ; font-style: normal ; font-weight: 400 ; letter-spacing: normal ; text-align: left ; text-indent: 0px ; text-transform: none ; word-spacing: 0px ; background-color: rgb(248 , 249 , 250) ; display: inline ; float: none&quot;&gt;flow个configuration_balancer_request构造完毕?&lt;/span&gt;" style="rhombus;whiteSpace=wrap;html=1;fillColor=#FFFFFF;" vertex="1" parent="1">
          <mxGeometry x="236.25" y="3837" width="291.5" height="70" as="geometry" />
        </mxCell>
        <mxCell id="0hxDmn6Wgr_d0VM1-wjn-47" value="" style="endArrow=classic;html=1;rounded=0;edgeStyle=orthogonalEdgeStyle;exitX=0;exitY=0.5;exitDx=0;exitDy=0;" edge="1" parent="1" source="0hxDmn6Wgr_d0VM1-wjn-46">
          <mxGeometry relative="1" as="geometry">
            <mxPoint x="245" y="3857" as="sourcePoint" />
            <mxPoint x="385" y="3397" as="targetPoint" />
            <Array as="points">
              <mxPoint x="235" y="3872" />
              <mxPoint x="235" y="3397" />
            </Array>
          </mxGeometry>
        </mxCell>
        <mxCell id="0hxDmn6Wgr_d0VM1-wjn-48" value="No" style="edgeLabel;resizable=0;html=1;align=center;verticalAlign=middle;fillColor=#FFFFFF;" connectable="0" vertex="1" parent="0hxDmn6Wgr_d0VM1-wjn-47">
          <mxGeometry relative="1" as="geometry" />
        </mxCell>
        <mxCell id="0hxDmn6Wgr_d0VM1-wjn-49" value="" style="endArrow=classic;html=1;rounded=0;exitX=0.5;exitY=1;exitDx=0;exitDy=0;" edge="1" parent="1" source="0hxDmn6Wgr_d0VM1-wjn-41" target="0hxDmn6Wgr_d0VM1-wjn-43">
          <mxGeometry width="50" height="50" relative="1" as="geometry">
            <mxPoint x="625" y="3607" as="sourcePoint" />
            <mxPoint x="675" y="3557" as="targetPoint" />
          </mxGeometry>
        </mxCell>
        <mxCell id="0hxDmn6Wgr_d0VM1-wjn-50" value="" style="endArrow=classic;html=1;rounded=0;exitX=0.5;exitY=1;exitDx=0;exitDy=0;entryX=0.5;entryY=0;entryDx=0;entryDy=0;" edge="1" parent="1" source="0hxDmn6Wgr_d0VM1-wjn-43" target="0hxDmn6Wgr_d0VM1-wjn-44">
          <mxGeometry width="50" height="50" relative="1" as="geometry">
            <mxPoint x="75" y="3787" as="sourcePoint" />
            <mxPoint x="125" y="3737" as="targetPoint" />
          </mxGeometry>
        </mxCell>
        <mxCell id="0hxDmn6Wgr_d0VM1-wjn-51" value="" style="endArrow=classic;html=1;rounded=0;exitX=0.5;exitY=1;exitDx=0;exitDy=0;entryX=0.5;entryY=0;entryDx=0;entryDy=0;" edge="1" parent="1" source="0hxDmn6Wgr_d0VM1-wjn-44" target="0hxDmn6Wgr_d0VM1-wjn-45">
          <mxGeometry width="50" height="50" relative="1" as="geometry">
            <mxPoint x="545" y="3677" as="sourcePoint" />
            <mxPoint x="595" y="3627" as="targetPoint" />
          </mxGeometry>
        </mxCell>
        <mxCell id="0hxDmn6Wgr_d0VM1-wjn-52" value="" style="endArrow=classic;html=1;rounded=0;exitX=0.5;exitY=1;exitDx=0;exitDy=0;entryX=0.5;entryY=0;entryDx=0;entryDy=0;" edge="1" parent="1" source="0hxDmn6Wgr_d0VM1-wjn-45" target="0hxDmn6Wgr_d0VM1-wjn-46">
          <mxGeometry width="50" height="50" relative="1" as="geometry">
            <mxPoint x="545" y="3827" as="sourcePoint" />
            <mxPoint x="595" y="3777" as="targetPoint" />
          </mxGeometry>
        </mxCell>
        <mxCell id="0hxDmn6Wgr_d0VM1-wjn-53" value="path路径遍历完毕?" style="rhombus;whiteSpace=wrap;html=1;fillColor=#FFFFFF;" vertex="1" parent="1">
          <mxGeometry x="255.5" y="3947" width="256" height="90" as="geometry" />
        </mxCell>
        <mxCell id="0hxDmn6Wgr_d0VM1-wjn-54" value="" style="endArrow=classic;html=1;rounded=0;exitX=0.5;exitY=1;exitDx=0;exitDy=0;entryX=0.5;entryY=0;entryDx=0;entryDy=0;" edge="1" parent="1" source="0hxDmn6Wgr_d0VM1-wjn-46" target="0hxDmn6Wgr_d0VM1-wjn-53">
          <mxGeometry relative="1" as="geometry">
            <mxPoint x="145" y="3897" as="sourcePoint" />
            <mxPoint x="245" y="3897" as="targetPoint" />
          </mxGeometry>
        </mxCell>
        <mxCell id="0hxDmn6Wgr_d0VM1-wjn-55" value="Yes" style="edgeLabel;resizable=0;html=1;align=center;verticalAlign=middle;fillColor=#FFFFFF;" connectable="0" vertex="1" parent="0hxDmn6Wgr_d0VM1-wjn-54">
          <mxGeometry relative="1" as="geometry" />
        </mxCell>
        <mxCell id="0hxDmn6Wgr_d0VM1-wjn-56" value="" style="endArrow=classic;html=1;rounded=0;exitX=1;exitY=0.5;exitDx=0;exitDy=0;edgeStyle=orthogonalEdgeStyle;" edge="1" parent="1" source="0hxDmn6Wgr_d0VM1-wjn-53">
          <mxGeometry relative="1" as="geometry">
            <mxPoint x="515" y="3992" as="sourcePoint" />
            <mxPoint x="385" y="3007" as="targetPoint" />
            <Array as="points">
              <mxPoint x="555" y="3992" />
              <mxPoint x="555" y="3007" />
            </Array>
          </mxGeometry>
        </mxCell>
        <mxCell id="0hxDmn6Wgr_d0VM1-wjn-57" value="No" style="edgeLabel;resizable=0;html=1;align=center;verticalAlign=middle;fillColor=#FFFFFF;" connectable="0" vertex="1" parent="0hxDmn6Wgr_d0VM1-wjn-56">
          <mxGeometry relative="1" as="geometry" />
        </mxCell>
        <mxCell id="0hxDmn6Wgr_d0VM1-wjn-58" value="" style="endArrow=classic;html=1;rounded=0;exitX=0.5;exitY=1;exitDx=0;exitDy=0;entryX=0.5;entryY=0;entryDx=0;entryDy=0;" edge="1" parent="1" source="0hxDmn6Wgr_d0VM1-wjn-53" target="0hxDmn6Wgr_d0VM1-wjn-60">
          <mxGeometry relative="1" as="geometry">
            <mxPoint x="425" y="4097" as="sourcePoint" />
            <mxPoint x="385" y="4097" as="targetPoint" />
          </mxGeometry>
        </mxCell>
        <mxCell id="0hxDmn6Wgr_d0VM1-wjn-59" value="yes" style="edgeLabel;resizable=0;html=1;align=center;verticalAlign=middle;fillColor=#FFFFFF;" connectable="0" vertex="1" parent="0hxDmn6Wgr_d0VM1-wjn-58">
          <mxGeometry relative="1" as="geometry" />
        </mxCell>
        <mxCell id="0hxDmn6Wgr_d0VM1-wjn-60" value="balance_in_turn 开关开启&lt;br&gt;并且migration_map已有数据" style="rhombus;whiteSpace=wrap;html=1;fillColor=#FFFFFF;" vertex="1" parent="1">
          <mxGeometry x="276.5" y="4087" width="214" height="80" as="geometry" />
        </mxCell>
        <mxCell id="0hxDmn6Wgr_d0VM1-wjn-61" value="结束" style="rounded=1;whiteSpace=wrap;html=1;fillColor=#FFFFFF;" vertex="1" parent="1">
          <mxGeometry x="320.75" y="4217" width="124" height="40" as="geometry" />
        </mxCell>
        <mxCell id="0hxDmn6Wgr_d0VM1-wjn-62" value="" style="endArrow=classic;html=1;rounded=0;exitX=0.5;exitY=1;exitDx=0;exitDy=0;entryX=0.5;entryY=0;entryDx=0;entryDy=0;" edge="1" parent="1" source="0hxDmn6Wgr_d0VM1-wjn-60" target="0hxDmn6Wgr_d0VM1-wjn-61">
          <mxGeometry relative="1" as="geometry">
            <mxPoint x="35" y="4167" as="sourcePoint" />
            <mxPoint x="135" y="4167" as="targetPoint" />
          </mxGeometry>
        </mxCell>
        <mxCell id="0hxDmn6Wgr_d0VM1-wjn-63" value="Yes" style="edgeLabel;resizable=0;html=1;align=center;verticalAlign=middle;fillColor=#FFFFFF;" connectable="0" vertex="1" parent="0hxDmn6Wgr_d0VM1-wjn-62">
          <mxGeometry relative="1" as="geometry" />
        </mxCell>
        <mxCell id="0hxDmn6Wgr_d0VM1-wjn-64" value="app遍历结束？" style="rhombus;whiteSpace=wrap;html=1;fillColor=#FFFFFF;" vertex="1" parent="1">
          <mxGeometry x="85" y="4087" width="150" height="80" as="geometry" />
        </mxCell>
        <mxCell id="0hxDmn6Wgr_d0VM1-wjn-65" value="" style="endArrow=classic;html=1;rounded=0;entryX=1;entryY=0.5;entryDx=0;entryDy=0;" edge="1" parent="1" target="0hxDmn6Wgr_d0VM1-wjn-64">
          <mxGeometry relative="1" as="geometry">
            <mxPoint x="275" y="4127" as="sourcePoint" />
            <mxPoint x="325" y="4227" as="targetPoint" />
          </mxGeometry>
        </mxCell>
        <mxCell id="0hxDmn6Wgr_d0VM1-wjn-66" value="No" style="edgeLabel;resizable=0;html=1;align=center;verticalAlign=middle;fillColor=#FFFFFF;" connectable="0" vertex="1" parent="0hxDmn6Wgr_d0VM1-wjn-65">
          <mxGeometry relative="1" as="geometry" />
        </mxCell>
        <mxCell id="0hxDmn6Wgr_d0VM1-wjn-67" value="" style="endArrow=classic;html=1;rounded=0;exitX=0.5;exitY=1;exitDx=0;exitDy=0;entryX=0;entryY=0.5;entryDx=0;entryDy=0;edgeStyle=orthogonalEdgeStyle;" edge="1" parent="1" source="0hxDmn6Wgr_d0VM1-wjn-64" target="0hxDmn6Wgr_d0VM1-wjn-61">
          <mxGeometry relative="1" as="geometry">
            <mxPoint x="165" y="4237" as="sourcePoint" />
            <mxPoint x="265" y="4237" as="targetPoint" />
          </mxGeometry>
        </mxCell>
        <mxCell id="0hxDmn6Wgr_d0VM1-wjn-68" value="Yes" style="edgeLabel;resizable=0;html=1;align=center;verticalAlign=middle;fillColor=#FFFFFF;" connectable="0" vertex="1" parent="0hxDmn6Wgr_d0VM1-wjn-67">
          <mxGeometry relative="1" as="geometry" />
        </mxCell>
        <mxCell id="0hxDmn6Wgr_d0VM1-wjn-69" value="" style="endArrow=classic;html=1;rounded=0;exitX=0.5;exitY=0;exitDx=0;exitDy=0;edgeStyle=orthogonalEdgeStyle;" edge="1" parent="1" source="0hxDmn6Wgr_d0VM1-wjn-64">
          <mxGeometry relative="1" as="geometry">
            <mxPoint x="5" y="3957" as="sourcePoint" />
            <mxPoint x="385" y="2267" as="targetPoint" />
            <Array as="points">
              <mxPoint x="160" y="2267" />
              <mxPoint x="385" y="2267" />
            </Array>
          </mxGeometry>
        </mxCell>
        <mxCell id="0hxDmn6Wgr_d0VM1-wjn-70" value="No" style="edgeLabel;resizable=0;html=1;align=center;verticalAlign=middle;fillColor=#FFFFFF;" connectable="0" vertex="1" parent="0hxDmn6Wgr_d0VM1-wjn-69">
          <mxGeometry relative="1" as="geometry" />
        </mxCell>
        <mxCell id="0hxDmn6Wgr_d0VM1-wjn-71" value="" style="endArrow=classic;html=1;rounded=0;exitX=1;exitY=0.5;exitDx=0;exitDy=0;entryX=0;entryY=0.5;entryDx=0;entryDy=0;" edge="1" parent="1" source="0hxDmn6Wgr_d0VM1-wjn-27" target="0hxDmn6Wgr_d0VM1-wjn-73">
          <mxGeometry relative="1" as="geometry">
            <mxPoint x="575" y="2857" as="sourcePoint" />
            <mxPoint x="635" y="2837" as="targetPoint" />
          </mxGeometry>
        </mxCell>
        <mxCell id="0hxDmn6Wgr_d0VM1-wjn-72" value="No" style="edgeLabel;resizable=0;html=1;align=center;verticalAlign=middle;fillColor=#FFFFFF;" connectable="0" vertex="1" parent="0hxDmn6Wgr_d0VM1-wjn-71">
          <mxGeometry relative="1" as="geometry" />
        </mxCell>
        <mxCell id="0hxDmn6Wgr_d0VM1-wjn-73" value="将所有节点关于此app的主分片数放入partition_count(node_id-&amp;gt;int)中" style="rounded=0;whiteSpace=wrap;html=1;fillColor=#FFFFFF;align=left;" vertex="1" parent="1">
          <mxGeometry x="675" y="2807" width="200" height="55" as="geometry" />
        </mxCell>
        <mxCell id="0hxDmn6Wgr_d0VM1-wjn-74" value="" style="rounded=0;whiteSpace=wrap;html=1;fillColor=#FFFFFF;" vertex="1" parent="1">
          <mxGeometry x="675" y="2912" width="200" height="50" as="geometry" />
        </mxCell>
        <mxCell id="0hxDmn6Wgr_d0VM1-wjn-75" value="" style="endArrow=classic;html=1;rounded=0;exitX=0.5;exitY=1;exitDx=0;exitDy=0;entryX=0.5;entryY=0;entryDx=0;entryDy=0;" edge="1" parent="1" source="0hxDmn6Wgr_d0VM1-wjn-73" target="0hxDmn6Wgr_d0VM1-wjn-74">
          <mxGeometry width="50" height="50" relative="1" as="geometry">
            <mxPoint x="875" y="2892" as="sourcePoint" />
            <mxPoint x="925" y="2842" as="targetPoint" />
          </mxGeometry>
        </mxCell>
      </root>
    </mxGraphModel>
  </diagram>
</mxfile>
